<?xml version="1.0" encoding="UTF-8" standalone="no"?>
<svg
   xmlns:dc="http://purl.org/dc/elements/1.1/"
   xmlns:cc="http://creativecommons.org/ns#"
   xmlns:rdf="http://www.w3.org/1999/02/22-rdf-syntax-ns#"
   xmlns:svg="http://www.w3.org/2000/svg"
   xmlns="http://www.w3.org/2000/svg"
   xmlns:sodipodi="http://sodipodi.sourceforge.net/DTD/sodipodi-0.dtd"
   xmlns:inkscape="http://www.inkscape.org/namespaces/inkscape"
   version="1.1"
   id="svg2"
   xml:space="preserve"
   width="793.70667"
   height="793.70667"
   viewBox="0 0 793.70667 793.70667"
   sodipodi:docname="LOGO PORTRAIT.ai"><metadata
     id="metadata8"><rdf:RDF><cc:Work
         rdf:about=""><dc:format>image/svg+xml</dc:format><dc:type
           rdf:resource="http://purl.org/dc/dcmitype/StillImage" /></cc:Work></rdf:RDF></metadata><defs
     id="defs6"><clipPath
       clipPathUnits="userSpaceOnUse"
       id="clipPath22"><path
         d="M 0,595.28 H 595.28 V 0 H 0 Z"
         id="path20" /></clipPath></defs><sodipodi:namedview
     pagecolor="#ffffff"
     bordercolor="#666666"
     borderopacity="1"
     objecttolerance="10"
     gridtolerance="10"
     guidetolerance="10"
     inkscape:pageopacity="0"
     inkscape:pageshadow="2"
     inkscape:window-width="640"
     inkscape:window-height="480"
     id="namedview4" /><g
     id="g10"
     inkscape:groupmode="layer"
     inkscape:label="LOGO PORTRAIT"
     transform="matrix(1.3333333,0,0,-1.3333333,0,793.70667)"><g
       id="g12"
       transform="translate(76.6764,24.5872)"><path
         d="M 0,0 V 166.197 H 71.347 V 141.14 H 25.058 V 95.58 H 58.862 V 70.525 H 25.058 V 25.055 H 71.347 V 0 Z"
         style="fill:#4faf47;fill-opacity:1;fill-rule:nonzero;stroke:none"
         id="path14" /></g><g
       id="g16"><g
         id="g18"
         clip-path="url(#clipPath22)"><g
           id="g24"
           transform="translate(208.9614,49.3711)"><path
             d="m 0,0 h 15.08 c 3.995,0 7.357,1.439 10.082,4.331 2.725,2.885 4.088,6.268 4.088,10.155 v 86.925 c 0,3.95 -1.394,7.339 -4.18,10.162 -2.787,2.824 -6.115,4.236 -9.99,4.236 l -15.08,0 z m 53.668,14.942 c 0,-10.931 -3.857,-20.288 -11.571,-28.063 -7.714,-7.775 -16.978,-11.663 -27.792,-11.663 h -39.363 v 166.198 h 39.363 c 10.934,0 20.229,-3.888 27.884,-11.663 7.652,-7.776 11.479,-17.101 11.479,-27.971 z"
             style="fill:#4faf47;fill-opacity:1;fill-rule:nonzero;stroke:none"
             id="path26" /></g><path
           d="m 328.307,24.587 h -25.058 v 166.197 h 25.058 z"
           style="fill:#4faf47;fill-opacity:1;fill-rule:nonzero;stroke:none"
           id="path28" /><g
           id="g30"
           transform="translate(413.2081,152.6955)"><path
             d="m 0,0 -9.295,-65.512 h 18.59 z m -13.121,-89.933 -6.105,-38.175 h -26.06 l 28.158,166.197 h 34.53 L 45.194,-128.108 H 18.952 l -5.923,38.175 z"
             style="fill:#4faf47;fill-opacity:1;fill-rule:nonzero;stroke:none"
             id="path32" /></g><g
           id="g34"
           transform="translate(371.0225,308.9339)"><path
             d="m 0,0 c 0,-46.766 -36.887,-84.695 -82.379,-84.695 -45.493,0 -82.379,37.929 -82.379,84.695 0,46.781 36.886,84.701 82.379,84.701 C -36.887,84.701 0,46.781 0,0"
             style="fill:#ffd110;fill-opacity:1;fill-rule:nonzero;stroke:none"
             id="path36" /></g><g
           id="g38"
           transform="translate(192.725,253.7685)"><path
             d="m 0,0 c -0.867,1.498 -1.728,3.011 -2.513,4.552 -7.888,15.16 -12.358,32.473 -12.358,50.862 0,35.3 16.465,66.623 41.934,86.338 0.215,0.163 0.428,0.338 0.646,0.501 10.707,8.16 22.957,14.283 36.238,17.802 3.488,0.923 7.07,1.618 10.678,2.172 5.656,2.162 13.296,7.329 13.158,19.426 l -0.184,78.968 C 1.913,255.905 -73.216,206.409 -118.672,133.078 L -118.74,-7.625 c 0,0 -0.43,-20.982 27.442,-20.973 l 81.874,0.062 C 5.5,-28.502 4.534,-14.976 4.534,-14.976 2.91,-10.122 1.397,-5.112 0,0"
             style="fill:#5266ae;fill-opacity:1;fill-rule:nonzero;stroke:none"
             id="path40" /></g><g
           id="g42"
           transform="translate(280.2804,532.96)"><path
             d="M 0,0 V 2.205 H -0.474 C -0.172,3.377 0,4.577 0,5.77 c 0,20.502 -46.145,37.124 -103.075,37.124 -56.931,0 -103.069,-16.622 -103.069,-37.124 0,-1.193 0.16,-2.393 0.476,-3.565 h -0.476 l -0.071,-115.476 C -156.724,-47.488 -82.96,-4.251 0,0"
             style="fill:#4faf47;fill-opacity:1;fill-rule:nonzero;stroke:none"
             id="path44" /></g><g
           id="g46"
           transform="translate(386.7699,252.6057)"><path
             d="m 0,0 c 0.87,1.504 1.713,3.008 2.537,4.549 7.868,15.163 12.346,32.482 12.346,50.871 0,35.294 -16.474,66.617 -41.933,86.338 -0.219,0.163 -0.434,0.338 -0.653,0.502 -10.706,8.153 -22.963,14.289 -36.241,17.792 -3.481,0.926 -7.058,1.621 -10.681,2.181 -5.656,2.156 -13.281,7.323 -13.158,19.42 l 0.194,78.977 c 85.685,-4.721 160.805,-54.215 206.27,-127.551 l 0.068,-140.698 c 0,0 0.424,-20.985 -27.435,-20.973 L 9.439,-28.533 C -5.49,-28.502 -4.533,-14.973 -4.533,-14.973 -2.91,-10.113 -1.39,-5.115 0,0"
             style="fill:#5266ae;fill-opacity:1;fill-rule:nonzero;stroke:none"
             id="path48" /></g><g
           id="g50"
           transform="translate(299.2208,531.8067)"><path
             d="M 0,0 0.006,2.202 H 0.474 C 0.169,3.377 0.006,4.574 0.006,5.758 c 0,20.505 46.138,37.136 103.072,37.136 56.925,0 103.079,-16.631 103.079,-37.136 0,-1.184 -0.176,-2.381 -0.48,-3.556 h 0.48 l 0.055,-115.479 C 156.727,-47.498 82.96,-4.26 0,0"
             style="fill:#4faf47;fill-opacity:1;fill-rule:nonzero;stroke:none"
             id="path52" /></g><g
           id="g54"
           transform="translate(482.4294,165.7456)"><path
             d="m 0,0 c -2.448,-0.037 -4.54,0.597 -6.271,1.907 -1.178,0.858 -2.006,2.07 -2.482,3.632 -0.268,0.849 -0.403,1.83 -0.403,2.944 0,2.079 0.513,3.795 1.538,5.155 0.848,1.128 1.993,2.026 3.435,2.694 1.443,0.667 3.107,1.052 4.992,1.153 l 0.344,-5.019 c -2.039,-0.231 -3.512,-0.775 -4.422,-1.637 -0.692,-0.627 -1.022,-1.353 -0.982,-2.171 0.037,-1.156 0.603,-2.079 1.692,-2.771 0.551,-0.36 1.329,-0.538 2.328,-0.538 1.474,0 2.928,0.661 4.365,1.98 0.987,1.052 2.469,2.624 4.444,4.712 1.692,1.757 3.211,2.996 4.558,3.713 1.513,0.781 3.156,1.175 4.924,1.175 3.193,0 5.61,-1.071 7.253,-3.215 0.987,-1.319 1.479,-2.961 1.479,-4.924 0,-1.885 -0.421,-3.5 -1.27,-4.847 C 24.87,2.907 23.956,2.067 22.782,1.424 21.61,0.784 20.26,0.394 18.734,0.252 L 17.811,5.33 c 1.437,0.142 2.55,0.551 3.347,1.23 0.59,0.486 0.882,1.188 0.882,2.098 0,0.96 -0.427,1.698 -1.288,2.211 -0.692,0.41 -1.551,0.616 -2.578,0.616 -1.602,0 -3.235,-0.692 -4.902,-2.08 C 12.644,8.883 11.9,8.098 11.039,7.059 10.014,5.828 9.295,5.016 8.886,4.617 7.578,3.322 6.29,2.316 5.02,1.596 4.429,1.264 3.878,0.997 3.365,0.79 2.122,0.289 1,0.028 0,0"
             style="fill:#5266ae;fill-opacity:1;fill-rule:nonzero;stroke:none"
             id="path56" /></g><g
           id="g58"
           transform="translate(473.716,160.3785)"><path
             d="m 0,0 h 35.084 v -15.059 h -5.29 v 9.769 h -9.618 v -7.136 h -5.29 V -5.29 H 5.29 v -9.769 H 0 Z"
             style="fill:#5266ae;fill-opacity:1;fill-rule:nonzero;stroke:none"
             id="path60" /></g><g
           id="g62"
           transform="translate(500.336,129.2096)"><path
             d="m 0,0 c 2.039,0 3.057,1.003 3.057,3.014 v 3.18 H -8.157 v -3.18 c 0,-0.843 0.299,-1.556 0.895,-2.14 C -6.665,0.295 -5.951,0 -5.118,0 Z M 8.464,3.156 C 8.464,0.209 7.649,-1.956 6.019,-3.328 4.598,-4.546 2.62,-5.155 0.095,-5.155 h -5.096 c -2.488,0 -4.583,0.941 -6.29,2.824 L -26.62,-6.25 v 5.703 l 13.253,3.229 c -0.012,0.154 -0.021,0.314 -0.021,0.48 V 6.194 H -26.62 v 5.291 H 8.464 Z"
             style="fill:#5266ae;fill-opacity:1;fill-rule:nonzero;stroke:none"
             id="path64" /></g><g
           id="g66"
           transform="translate(473.716,113.5544)"><path
             d="M 0,0 35.084,6.25 V 0.707 L 7.769,-3.672 35.084,-8.12 v -5.536 L 0,-7.289 Z"
             style="fill:#5266ae;fill-opacity:1;fill-rule:nonzero;stroke:none"
             id="path68" /></g><path
           d="M 473.716,94.473 H 508.8 v -5.29 h -35.084 z"
           style="fill:#5266ae;fill-opacity:1;fill-rule:nonzero;stroke:none"
           id="path70" /><g
           id="g72"
           transform="translate(473.2731,75.1391)"><path
             d="m 0,0 c 0,2.331 0.815,4.312 2.442,5.942 1.63,1.63 3.605,2.442 5.924,2.442 h 19.217 c 2.319,0 4.296,-0.818 5.933,-2.46 1.636,-1.643 2.451,-3.617 2.451,-5.924 0,-2.338 -0.821,-4.312 -2.461,-5.936 -1.642,-1.624 -3.617,-2.43 -5.923,-2.43 h -4.002 v 5.481 h 4.097 c 0.846,0 1.569,0.295 2.165,0.892 0.594,0.597 0.892,1.316 0.892,2.165 0,0.831 -0.298,1.544 -0.892,2.135 -0.596,0.59 -1.319,0.886 -2.165,0.886 H 8.424 C 7.578,3.193 6.862,2.897 6.271,2.307 5.681,1.716 5.386,1.003 5.386,0.172 c 0,-0.849 0.295,-1.568 0.885,-2.165 0.591,-0.597 1.307,-0.892 2.153,-0.892 h 4.829 V -8.366 H 8.366 c -2.332,0 -4.309,0.818 -5.933,2.461 C 0.812,-4.263 0,-2.294 0,0"
             style="fill:#5266ae;fill-opacity:1;fill-rule:nonzero;stroke:none"
             id="path74" /></g><g
           id="g76"
           transform="translate(473.716,61.4585)"><path
             d="m 0,0 h 35.084 v -15.059 h -5.29 v 9.769 h -9.618 v -7.136 h -5.29 V -5.29 H 5.29 v -9.769 H 0 Z"
             style="fill:#5266ae;fill-opacity:1;fill-rule:nonzero;stroke:none"
             id="path78" /></g><g
           id="g80"
           transform="translate(482.4294,24.292)"><path
             d="m 0,0 c -2.448,-0.043 -4.54,0.597 -6.271,1.901 -1.178,0.861 -2.006,2.073 -2.482,3.635 -0.268,0.849 -0.403,1.827 -0.403,2.947 0,2.073 0.513,3.795 1.538,5.155 0.848,1.125 1.993,2.023 3.435,2.688 1.443,0.67 3.107,1.052 4.992,1.156 L 1.153,12.463 C -0.886,12.229 -2.359,11.688 -3.269,10.826 -3.961,10.199 -4.291,9.473 -4.251,8.655 -4.214,7.499 -3.648,6.576 -2.559,5.887 -2.008,5.524 -1.23,5.346 -0.231,5.346 c 1.474,0 2.928,0.658 4.365,1.98 0.987,1.052 2.469,2.621 4.444,4.712 1.692,1.76 3.211,2.996 4.558,3.716 1.513,0.781 3.156,1.168 4.924,1.168 3.193,0 5.61,-1.07 7.253,-3.211 0.987,-1.322 1.479,-2.958 1.479,-4.921 0,-1.888 -0.421,-3.5 -1.27,-4.847 C 24.87,2.903 23.956,2.061 22.782,1.421 21.61,0.781 20.26,0.388 18.734,0.246 l -0.923,5.081 c 1.437,0.142 2.55,0.548 3.347,1.23 0.59,0.486 0.882,1.188 0.882,2.098 0,0.96 -0.427,1.698 -1.288,2.208 -0.692,0.412 -1.551,0.615 -2.578,0.615 -1.602,0 -3.235,-0.689 -4.902,-2.073 C 12.644,8.876 11.9,8.095 11.039,7.056 10.014,5.825 9.295,5.013 8.886,4.614 7.578,3.322 6.29,2.313 5.02,1.593 4.429,1.261 3.878,0.99 3.365,0.787 2.122,0.289 1,0.025 0,0"
             style="fill:#5266ae;fill-opacity:1;fill-rule:nonzero;stroke:none"
             id="path82" /></g></g></g></g></svg>
