<svg xmlns="http://www.w3.org/2000/svg" version="1.1" xmlns:xlink="http://www.w3.org/1999/xlink" xmlns:svgjs="http://svgjs.com/svgjs" width="1920" height="1080" preserveAspectRatio="none" viewBox="0 0 1920 1080">
    <g mask="url(&quot;#SvgjsMask1025&quot;)" fill="none">
        <path d="M1431.85 507.64 a79.62 79.62 0 1 0 159.24 0 a79.62 79.62 0 1 0 -159.24 0z" stroke="rgba(73, 182, 89, 0.5)"></path>
        <path d="M387.37 652.82L442.94 652.82L442.94 724.38L387.37 724.38z" fill="rgba(50, 97, 175, 0.5)"></path>
        <path d="M1121.27 962.15L1133.68 962.15L1133.68 974.56L1121.27 974.56z" stroke="rgba(50, 97, 175, 0.5)"></path>
        <path d="M1194.16 121.1a38.94 38.94 0 1 0 67.46-38.92z" fill="rgba(50, 97, 175, 0.5)"></path>
        <path d="M211.46 221.43L292.68 221.43L292.68 320.05L211.46 320.05z" fill="rgba(50, 97, 175, 0.5)"></path>
        <path d="M1225.18 854.55L1241.64 854.55L1241.64 871.01L1225.18 871.01z" stroke="rgba(255, 208, 40, 0.5)"></path>
        <path d="M737.14 173.13a69.47 69.47 0 1 0 56.81-126.79z" fill="rgba(255, 208, 40, 0.5)"></path>
        <path d="M750.16 442.51a42.61 42.61 0 1 0-38.63 75.97z" stroke="rgba(73, 182, 89, 0.5)"></path>
        <path d="M293.21 98.47L367.47 98.47L367.47 105.45L293.21 105.45z" stroke="rgba(73, 182, 89, 0.5)"></path>
        <path d="M926.76 924.59a64.67 64.67 0 1 0-111.06-66.29z" fill="rgba(50, 97, 175, 0.5)"></path>
        <path d="M667.28 439.39a13.18 13.18 0 1 0 26.08 3.88z" fill="rgba(255, 208, 40, 0.5)"></path>
        <path d="M1725.24 469.87L1823.76 469.87L1823.76 490.81L1725.24 490.81z" stroke="rgba(73, 182, 89, 0.5)"></path>
        <path d="M1633.38 761.45a26.89 26.89 0 1 0 48.16-23.94z" stroke="rgba(255, 208, 40, 0.5)"></path>
        <path d="M1011.16 1072.41a80.46 80.46 0 1 0 158.22-29.38z" fill="rgba(255, 208, 40, 0.5)"></path>
        <path d="M1736.64 832.6 a100.31 100.31 0 1 0 200.62 0 a100.31 100.31 0 1 0 -200.62 0z" fill="rgba(255, 208, 40, 0.5)"></path>
        <path d="M1797.31 435.39L1808.74 435.39L1808.74 446.82L1797.31 446.82z" fill="rgba(255, 208, 40, 0.5)"></path>
        <path d="M1607.01 117.02 a92.59 92.59 0 1 0 185.18 0 a92.59 92.59 0 1 0 -185.18 0z" fill="rgba(73, 182, 89, 0.5)"></path>
        <path d="M1305.11 204.43 a79.57 79.57 0 1 0 159.14 0 a79.57 79.57 0 1 0 -159.14 0z" stroke="rgba(255, 208, 40, 0.5)"></path>
        <path d="M467.09 244.23 a90.23 90.23 0 1 0 180.46 0 a90.23 90.23 0 1 0 -180.46 0z" fill="rgba(73, 182, 89, 0.5)"></path>
        <path d="M101.54 542.22a21.84 21.84 0 1 0 4.88 43.41z" fill="rgba(255, 208, 40, 0.5)"></path>
        <path d="M1532.16 406.67 a42.42 42.42 0 1 0 84.84 0 a42.42 42.42 0 1 0 -84.84 0z" fill="rgba(73, 182, 89, 0.5)"></path>
        <path d="M1394.01 444.01L1417.72 444.01L1417.72 480.23L1394.01 480.23z" fill="rgba(255, 208, 40, 0.5)"></path>
        <path d="M286.35 329.69a27.39 27.39 0 1 0-43.34-33.51z" fill="rgba(73, 182, 89, 0.5)"></path>
    </g>
    <defs>
        <mask id="SvgjsMask1025">
            <rect width="1920" height="1080" fill="#ffffff"></rect>
        </mask>
    </defs>
</svg>